<mxfile host="drawio-plugin" modified="2022-10-28T01:54:57.178Z" agent="5.0 (Windows NT 6.2; Win64; x64) AppleWebKit/537.36 (KHTML, like Gecko) Chrome/98.0.4758.102 Safari/537.36" etag="D-mQUXehlceEvxO1omdN" version="15.5.4" type="embed"><diagram id="23iRSUPoRavnBvh4doch" name="Page-1"><mxGraphModel dx="1021" dy="457" grid="1" gridSize="10" guides="1" tooltips="1" connect="1" arrows="1" fold="1" page="1" pageScale="1" pageWidth="827" pageHeight="1169" math="0" shadow="0"><root><mxCell id="0"/><mxCell id="1" parent="0"/><mxCell id="16" style="edgeStyle=orthogonalEdgeStyle;rounded=0;orthogonalLoop=1;jettySize=auto;html=1;arcSize=15;metaEdit=0;startArrow=none;" edge="1" parent="1" source="34" target="6"><mxGeometry relative="1" as="geometry"><mxPoint x="390" y="60" as="sourcePoint"/></mxGeometry></mxCell><mxCell id="5" value="Client" style="rounded=0;whiteSpace=wrap;html=1;arcSize=15;metaEdit=0;direction=west;" vertex="1" parent="1"><mxGeometry x="330" y="10" width="120" height="40" as="geometry"/></mxCell><mxCell id="23" style="edgeStyle=orthogonalEdgeStyle;rounded=0;orthogonalLoop=1;jettySize=auto;html=1;arcSize=15;metaEdit=0;" edge="1" parent="1" source="6" target="8"><mxGeometry relative="1" as="geometry"/></mxCell><mxCell id="33" style="edgeStyle=orthogonalEdgeStyle;shape=link;rounded=0;orthogonalLoop=1;jettySize=auto;html=1;arcSize=15;metaEdit=0;" edge="1" parent="1" source="6" target="18"><mxGeometry relative="1" as="geometry"/></mxCell><mxCell id="6" value="Gateway" style="rounded=0;whiteSpace=wrap;html=1;arcSize=15;metaEdit=0;direction=west;" vertex="1" parent="1"><mxGeometry x="330" y="140" width="120" height="40" as="geometry"/></mxCell><mxCell id="8" value="Server" style="rounded=0;whiteSpace=wrap;html=1;arcSize=15;metaEdit=0;direction=west;" vertex="1" parent="1"><mxGeometry x="330" y="280" width="120" height="40" as="geometry"/></mxCell><mxCell id="24" style="edgeStyle=orthogonalEdgeStyle;rounded=0;orthogonalLoop=1;jettySize=auto;html=1;arcSize=15;metaEdit=0;" edge="1" parent="1" source="14" target="20"><mxGeometry relative="1" as="geometry"/></mxCell><mxCell id="32" style="edgeStyle=orthogonalEdgeStyle;shape=link;rounded=0;orthogonalLoop=1;jettySize=auto;html=1;arcSize=15;metaEdit=0;" edge="1" parent="1" source="14" target="6"><mxGeometry relative="1" as="geometry"/></mxCell><mxCell id="14" value="Gateway" style="rounded=0;whiteSpace=wrap;html=1;arcSize=15;metaEdit=0;direction=west;" vertex="1" parent="1"><mxGeometry x="150" y="140" width="120" height="40" as="geometry"/></mxCell><mxCell id="22" style="edgeStyle=orthogonalEdgeStyle;rounded=0;orthogonalLoop=1;jettySize=auto;html=1;arcSize=15;metaEdit=0;" edge="1" parent="1" source="18" target="21"><mxGeometry relative="1" as="geometry"/></mxCell><mxCell id="18" value="Gateway" style="rounded=0;whiteSpace=wrap;html=1;arcSize=15;metaEdit=0;direction=west;" vertex="1" parent="1"><mxGeometry x="520" y="140" width="120" height="40" as="geometry"/></mxCell><mxCell id="20" value="Server" style="rounded=0;whiteSpace=wrap;html=1;arcSize=15;metaEdit=0;direction=west;" vertex="1" parent="1"><mxGeometry x="150" y="280" width="120" height="40" as="geometry"/></mxCell><mxCell id="21" value="Server" style="rounded=0;whiteSpace=wrap;html=1;arcSize=15;metaEdit=0;direction=west;" vertex="1" parent="1"><mxGeometry x="520" y="280" width="120" height="40" as="geometry"/></mxCell><mxCell id="29" value="需支持Bind机器节点" style="rounded=0;whiteSpace=wrap;html=1;direction=north;arcSize=15;metaEdit=0;" vertex="1" parent="1"><mxGeometry x="150" y="210" width="490" height="40" as="geometry"/></mxCell><mxCell id="34" value="DNS" style="rounded=0;whiteSpace=wrap;html=1;arcSize=15;metaEdit=0;direction=west;" vertex="1" parent="1"><mxGeometry x="330" y="70" width="120" height="40" as="geometry"/></mxCell><mxCell id="35" value="" style="edgeStyle=orthogonalEdgeStyle;rounded=0;orthogonalLoop=1;jettySize=auto;html=1;arcSize=15;metaEdit=0;endArrow=none;" edge="1" parent="1" target="34"><mxGeometry relative="1" as="geometry"><mxPoint x="390" y="60" as="sourcePoint"/><mxPoint x="390" y="180" as="targetPoint"/></mxGeometry></mxCell><mxCell id="38" style="edgeStyle=orthogonalEdgeStyle;rounded=0;orthogonalLoop=1;jettySize=auto;html=1;entryX=1;entryY=0.5;entryDx=0;entryDy=0;" edge="1" parent="1" source="37" target="14"><mxGeometry relative="1" as="geometry"/></mxCell><mxCell id="37" value="Gateway需要注册到&lt;br&gt;Server的依赖中" style="text;html=1;resizable=0;autosize=1;align=center;verticalAlign=middle;points=[];rounded=0;fillColor=none;" vertex="1" parent="1"><mxGeometry x="30" y="70" width="120" height="30" as="geometry"/></mxCell></root></mxGraphModel></diagram></mxfile>